HIERARCHY
ROOT Hips
{
	OFFSET 0.00000 0.00000 0.00000
	CHANNELS 6 Xposition Yposition Zposition Zrotation Yrotation Xrotation 
	JOINT LHipJoint
	{
		OFFSET 0 0 0
		CHANNELS 3 Zrotation Yrotation Xrotation
		JOINT LeftHip
		{
			OFFSET 1.62964 -1.40469 0.78906
			CHANNELS 3 Zrotation Yrotation Xrotation
			JOINT LeftKnee
			{
				OFFSET 2.29640 -6.30932 0.00000
				CHANNELS 3 Zrotation Yrotation Xrotation
				JOINT LeftAnkle
				{
					OFFSET 2.29451 -6.30412 0.00000
					CHANNELS 3 Zrotation Yrotation Xrotation
					JOINT LeftToe
					{
						OFFSET 0.03611 -0.09921 1.56387
						CHANNELS 3 Zrotation Yrotation Xrotation
						End Site
						{
							OFFSET 0.00000 -0.00000 0.80291
						}
					}
				}
			}
		}
	}
	JOINT RHipJoint
	{
		OFFSET 0 0 0
		CHANNELS 3 Zrotation Yrotation Xrotation
		JOINT RightHip
		{
			OFFSET -1.73712 -1.40469 0.78906
			CHANNELS 3 Zrotation Yrotation Xrotation
			JOINT RightKnee
			{
				OFFSET -2.28137 -6.26801 0.00000
				CHANNELS 3 Zrotation Yrotation Xrotation
				JOINT RightAnkle
				{
					OFFSET -2.28681 -6.28298 0.00000
					CHANNELS 3 Zrotation Yrotation Xrotation
					JOINT RightToe
					{
						OFFSET -0.15927 -0.43759 1.61103
						CHANNELS 3 Zrotation Yrotation Xrotation
						End Site
						{
							OFFSET -0.00000 -0.00000 0.84630
						}
					}
				}
			}
		}
	}
	JOINT lowerback
	{
		OFFSET 0 0 0
		CHANNELS 3 Zrotation Yrotation Xrotation
		JOINT Chest
		{
			OFFSET -0.04227 2.04338 -0.00225
			CHANNELS 3 Zrotation Yrotation Xrotation
			JOINT Chest2
			{
				OFFSET -0.02148 2.04482 -0.04273
				CHANNELS 3 Zrotation Yrotation Xrotation
				JOINT lowerneck
				{
					OFFSET 0 0 0
					CHANNELS 3 Zrotation Yrotation Xrotation
					JOINT Neck
					{
						OFFSET 0.09180 1.44629 0.19359
						CHANNELS 3 Zrotation Yrotation Xrotation
						JOINT Head
						{
							OFFSET 0.00887 1.40645 0.14750
							CHANNELS 3 Zrotation Yrotation Xrotation
							End Site
							{
								OFFSET -0.00669 1.50671 0.03707
							}
						}
					}
				}
				JOINT LeftCollar
				{
					OFFSET 0 0 0
					CHANNELS 3 Zrotation Yrotation Xrotation
					JOINT LeftShoulder
					{
						OFFSET 2.17674 1.86763 -0.06520
CHANNELS 3 Zrotation Xrotation Yrotation
						JOINT LeftElbow
						{
OFFSET 0 -4.657760 0.000000
CHANNELS 3 Zrotation Xrotation Yrotation
							JOINT LeftWrist
							{
OFFSET 0 -3.555390 0.000000
CHANNELS 3 Zrotation Xrotation Yrotation
								JOINT lhand
								{
									OFFSET 0 0 0
CHANNELS 3 Zrotation Xrotation Yrotation
									JOINT LFingers
									{
OFFSET 0 -0.707260 0.000000
CHANNELS 3 Zrotation Xrotation Yrotation
										End Site
										{
OFFSET 0 -0.570220 0.000000
										}
									}
								}
								JOINT LThumb
								{
OFFSET 0 0.000000 0.000000
CHANNELS 3 Zrotation Xrotation Yrotation
									End Site
									{
OFFSET 0 -0.578920 0.578920
									}
								}
							}
						}
					}
				}
				JOINT RightCollar
				{
					OFFSET 0 0 0
					CHANNELS 3 Zrotation Yrotation Xrotation
					JOINT RightShoulder
					{
						OFFSET -2.80694 1.55459 -0.32496
CHANNELS 3 Zrotation Xrotation Yrotation
						JOINT RightElbow
						{
OFFSET 0 -4.719250 -0.000000
CHANNELS 3 Zrotation Xrotation Yrotation
							JOINT RightWrist
							{
OFFSET 0 -3.569900 0.000000
CHANNELS 3 Zrotation Xrotation Yrotation
								JOINT rhand
								{
									OFFSET 0 0 0
CHANNELS 3 Zrotation Xrotation Yrotation
									JOINT RFingers
									{
OFFSET 0 -0.507760 0.000000
CHANNELS 3 Zrotation Xrotation Yrotation
										End Site
										{
OFFSET 0 -0.409370 0.000000
										}
									}
								}
								JOINT RThumb
								{
OFFSET 0 0.000000 0.000000
CHANNELS 3 Zrotation Xrotation Yrotation
									End Site
									{
OFFSET 0 -0.415620 0.415620
									}
								}
							}
						}
					}
				}
			}
		}
	}
}
MOTION
Frames: 4
Frame Time: 0.008333333333333333
10.200157 16.525218 4.348609 -1.526002 -2.770241 26.252310 0.000000 0.000000 0.000000 -14.463395 -11.862478 -25.619517 0.048047 1.414427 3.889952 0.001660 3.709251 -5.371086 2.156212 -9.182748 -26.369780 0.000000 0.000000 0.000000 10.635036 21.095347 -35.524752 -2.249609 -9.367773 26.952791 -1.701507 1.719850 -24.185995 -2.264426 9.394721 -27.039329 -6.765526 -3.734237 -19.601791 -0.588152 -3.187878 4.099715 2.100189 -2.035166 16.227397 -4.969226 1.666564 4.921173 8.538928 0.541798 24.749791 3.658367 0.348698 6.637265 0.000000 0.000000 0.000000 19.134707 -6.364091 -30.928302 33.880420 -43.995357 14.030111 23.939522 -8.652121 12.005320 0.000000 0.000000 0.000000 -7.125000 0.000000 0.000000 -2.269562 16.887975 -1.513545 0.000000 0.000000 0.000000 -13.214564 16.694829 31.170656 -41.103337 -48.710157 -19.264274 -1.895063 -3.452396 57.779113 0.000000 0.000000 0.000000 7.125000 0.000000 0.000000 86.625207 72.825194 -68.511526
9.920777 16.488097 4.442114 -0.137534 -2.290635 24.652386 0.000000 0.000000 0.000000 -15.507382 -10.708704 -24.565354 0.091119 1.946956 5.359195 0.061597 1.809248 -5.721663 2.594822 -10.008307 -29.003816 0.000000 0.000000 0.000000 11.911739 18.645644 -32.054345 -1.894318 -8.640930 24.679387 -0.805174 3.849951 -16.095847 -0.887720 5.994962 -16.772902 -6.699626 -3.331653 -20.856518 -0.663992 -2.553382 3.876303 2.153654 -1.740098 16.644881 -4.153707 1.422109 3.538333 7.327703 0.370334 27.317488 3.188820 0.299856 7.771523 0.000000 0.000000 0.000000 15.121879 -5.986371 -32.525368 37.521437 -46.530939 16.617395 24.167179 -11.235667 11.703757 0.000000 0.000000 0.000000 -7.125000 0.000000 0.000000 -2.095110 17.192089 -1.383200 0.000000 0.000000 0.000000 -12.603774 11.493826 32.411580 -40.028774 -48.086941 -18.460654 -5.595564 0.138004 55.731059 0.000000 0.000000 0.000000 7.125000 0.000000 0.000000 78.944460 73.944503 -62.126453
9.560726 16.460865 4.502081 1.041841 -2.076095 23.994325 0.000000 0.000000 0.000000 -15.392133 -10.660889 -24.500867 0.162261 2.594772 7.152568 0.107044 1.401091 -6.862767 2.904389 -10.537928 -30.737695 0.000000 0.000000 0.000000 13.745761 14.798438 -26.281509 -0.700166 -5.345147 14.896310 -0.748040 4.804312 -15.424932 -1.443868 7.591249 -21.481735 -6.312843 -2.120999 -21.996676 -0.807093 -0.928537 3.602787 2.331562 -0.970867 16.813507 -2.983865 1.309925 2.920281 6.235739 0.458538 27.763001 2.639969 0.405364 8.050131 0.000000 0.000000 0.000000 12.711314 -2.601714 -33.848752 35.911531 -45.451855 15.459510 23.788292 -7.313464 11.148562 0.000000 0.000000 0.000000 -7.125000 0.000000 0.000000 -2.332712 17.831841 -1.507694 0.000000 0.000000 0.000000 -10.009860 4.335236 32.064527 -38.820720 -47.355377 -17.566855 -7.345621 2.748742 55.122543 0.000000 0.000000 0.000000 7.125000 0.000000 0.000000 76.312406 74.481639 -60.197992
9.200755 16.489160 4.356572 1.374465 -3.300102 24.689779 0.000000 0.000000 0.000000 -12.740328 -14.763476 -26.947518 0.453017 4.312420 11.958109 0.200552 4.444018 -11.270181 1.849733 -8.539220 -24.368425 0.000000 0.000000 0.000000 15.428272 11.872910 -25.474934 -0.259205 -3.274427 9.043756 -0.400143 8.038120 -11.793342 -0.366699 3.889698 -10.766595 -4.793940 0.342999 -20.837518 -1.113663 1.903911 3.284025 2.096109 0.493976 15.477033 -3.323046 0.866808 2.087517 6.866249 -0.175529 27.338412 2.879356 0.168457 8.077098 0.000000 0.000000 0.000000 12.556094 0.904717 -33.318436 32.745518 -43.133318 13.247791 21.041817 -3.442033 9.688226 0.000000 0.000000 0.000000 -7.125000 0.000000 0.000000 -4.229014 19.628305 -2.569612 0.000000 0.000000 0.000000 -8.567455 -3.152361 32.644488 -38.485447 -47.146276 -17.320732 -9.881105 4.710370 56.536870 0.000000 0.000000 0.000000 7.125000 0.000000 0.000000 81.142483 75.567695 -66.139934
